<svg width="46" height="32" viewBox="0 0 46 32" fill="none" xmlns="http://www.w3.org/2000/svg">
<path d="M5.80533 13.001C5.80127 12.3397 5.84749 11.679 5.94359 11.0247C6.04078 10.3147 6.29904 9.63628 6.69864 9.04138C7.09823 8.44648 7.62858 7.95083 8.24912 7.59234C9.02339 7.13147 9.9653 6.90103 11.0749 6.90103C12.1844 6.90103 13.1263 7.13147 13.9006 7.59234C14.5211 7.95083 15.0515 8.44648 15.4511 9.04138C15.8507 9.63628 16.1089 10.3147 16.2061 11.0247C16.3022 11.679 16.3484 12.3397 16.3444 13.001V18.7907C16.3485 19.4521 16.3023 20.1127 16.2061 20.767C16.1084 21.4765 15.8499 22.1542 15.4504 22.7484C15.0508 23.3427 14.5207 23.8378 13.9006 24.1959C13.1263 24.6568 12.1844 24.8873 11.0749 24.8873C9.9653 24.8873 9.02339 24.6568 8.24912 24.1959C7.62858 23.8375 7.09823 23.3418 6.69864 22.7469C6.29904 22.152 6.04078 21.4736 5.94359 20.7636C5.84745 20.1093 5.80123 19.4486 5.80533 18.7873V12.9975V13.001ZM9.34139 19.3455C9.34139 20.0161 9.49751 20.5187 9.80975 20.8534C10.122 21.1882 10.5437 21.3558 11.0749 21.3564C11.606 21.3564 12.028 21.1887 12.3408 20.8534C12.6536 20.5182 12.8095 20.0155 12.8083 19.3455V12.4436C12.8083 11.7742 12.6525 11.2716 12.3408 10.9357C12.0292 10.5998 11.6072 10.4322 11.0749 10.4328C10.5431 10.4328 10.1214 10.6004 9.80975 10.9357C9.49809 11.271 9.34197 11.7736 9.34139 12.4436V19.3429V19.3455Z" fill="white"/>
<path d="M24.3065 23.0898C23.9462 23.6369 23.4648 24.0937 22.8997 24.4249C22.3222 24.7454 21.67 24.9067 21.0098 24.8924C19.5304 24.8924 18.5018 24.338 17.924 23.229C17.6976 22.7721 17.5467 22.2815 17.4772 21.7764C17.3844 21.2003 17.3381 20.4257 17.3381 19.4527V12.7582C17.3381 11.4873 17.3729 10.5515 17.4426 9.95059C17.5809 8.79437 18.1239 7.92764 19.0715 7.35039C19.5105 7.04967 20.1693 6.89931 21.0478 6.89931C21.4269 6.89197 21.8052 6.93852 22.1712 7.03757C22.4708 7.12468 22.7567 7.25324 23.0207 7.41952C23.2738 7.58092 23.5061 7.77307 23.712 7.99158C23.9205 8.21108 24.1403 8.44785 24.3713 8.70191V7.10757H27.9117V10.9098C26.7423 12.3197 26.1022 14.0939 26.1022 15.9257C26.1022 17.7575 26.7423 19.5317 27.9117 20.9416V26.8342C27.9088 27.4524 27.8094 28.0665 27.617 28.654C27.4223 29.265 27.0981 29.8268 26.6665 30.3011C26.206 30.8255 25.6385 31.2451 25.0021 31.5316C24.3316 31.8439 23.5343 32 22.6102 32C22.0457 31.9955 21.485 31.9081 20.9459 31.7408C20.3579 31.5615 19.8143 31.2603 19.3507 30.8567C18.8134 30.4272 18.3719 29.89 18.0544 29.2797C17.6961 28.6206 17.4591 27.7712 17.3433 26.7313H20.8802C20.9101 27.1691 21.0849 27.5844 21.3771 27.9118C21.6893 28.2816 22.1459 28.4665 22.7467 28.4665C23.3228 28.4665 23.7388 28.2874 23.9945 27.929C24.2503 27.5707 24.3777 27.1142 24.3765 26.5594V23.0898H24.3065ZM20.875 19.2764C20.8634 19.7856 20.989 20.2886 21.2388 20.7325C21.4819 21.1478 21.9385 21.3558 22.6085 21.3564C22.8455 21.3624 23.0811 21.3176 23.2993 21.2249C23.5176 21.1322 23.7134 20.9937 23.8736 20.8189C24.2089 20.4611 24.3765 20.0046 24.3765 19.4492V12.6165C24.3765 11.9689 24.2146 11.443 23.8908 11.0385C23.74 10.8436 23.5452 10.6872 23.3223 10.5821C23.0994 10.4769 22.8548 10.4261 22.6085 10.4336C22.007 10.4336 21.5678 10.6534 21.2907 11.093C21.0136 11.5325 20.875 12.1104 20.875 12.8265V19.2747V19.2764Z" fill="white"/>
<path d="M40.3606 11.3513V0H43.8984V19.7266C43.8984 20.3972 44.0196 20.8537 44.2622 21.0963C44.5047 21.3388 44.9595 21.4949 45.6266 21.5646V24.8924C44.894 24.8994 44.1625 24.8357 43.4421 24.7023C42.8351 24.5932 42.264 24.3371 41.7786 23.9566C41.3177 23.6109 40.9652 23.1198 40.7209 22.4832C40.5199 21.9561 40.4021 21.2898 40.3675 20.4845C41.3175 19.1508 41.8271 17.5537 41.8253 15.9162C41.8234 14.2788 41.3101 12.6829 40.3571 11.3513H40.3606Z" fill="white"/>
<path d="M-2.84843e-05 0H3.53604V19.7266C3.53604 20.3972 3.65759 20.8537 3.9007 21.0963C4.14382 21.3388 4.60066 21.4949 5.27123 21.5646V24.8924C4.53892 24.8994 3.80764 24.8357 3.08755 24.7023C2.48026 24.5932 1.90887 24.3372 1.42321 23.9566C0.962336 23.6109 0.609768 23.1198 0.365504 22.4832C0.12124 21.8466 -0.000604578 21.0087 -2.84843e-05 19.9694V0Z" fill="white"/>
<path fill-rule="evenodd" clip-rule="evenodd" d="M37.3715 10.1001L37.3922 10.1122C39.7721 11.5173 41.1694 14.4493 40.6051 17.2716C40.1091 19.7551 38.1276 21.88 35.6069 22.5074C33.9134 22.9145 32.1285 22.6644 30.6122 21.8074L32.1115 19.215C32.3121 19.3323 32.5237 19.4299 32.7432 19.5062C33.6259 19.8118 34.5907 19.7781 35.4499 19.4118C36.3092 19.0454 37.0015 18.3726 37.3923 17.5242C37.783 16.6758 37.8443 15.7123 37.5642 14.8212C37.284 13.9301 36.6825 13.1751 35.8765 12.7029L37.3758 10.1053L37.3715 10.1001Z" fill="#FDB713"/>
<path fill-rule="evenodd" clip-rule="evenodd" d="M37.3715 10.1001L35.8722 12.6977L35.8342 12.6752C35.2843 12.3626 34.6645 12.1936 34.032 12.1839C33.3995 12.1742 32.7748 12.3241 32.2156 12.6197C31.6563 12.9152 31.1806 13.347 30.8324 13.8751C30.4842 14.4032 30.2747 15.0105 30.2233 15.641C30.1101 17.0495 30.8679 18.4849 32.1114 19.2125L30.6122 21.8049C30.2336 21.591 29.877 21.3404 29.5475 21.0565C27.7078 19.4648 26.8246 16.8343 27.3872 14.4148C27.9497 11.9952 29.9494 9.94801 32.4208 9.36385C34.0837 8.97964 35.8301 9.23019 37.3179 10.0664L37.3723 10.0975L37.3715 10.1001Z" fill="white"/>
<path fill-rule="evenodd" clip-rule="evenodd" d="M35.2543 13.5255L31.071 16.7047L33.5019 16.5595L34.5924 18.7372L35.2543 13.5255Z" fill="#FDB713"/>
<path fill-rule="evenodd" clip-rule="evenodd" d="M9.86504 5.82171C10.3148 5.24918 10.8058 4.71025 11.3341 4.20923C14.1814 1.53362 17.9332 0.0304892 21.8403 0H21.9397C26.6726 0.0224677 31.326 2.34009 34.1897 6.16824C34.6673 6.80651 35.0919 7.4828 35.4592 8.19032C34.9564 8.09191 34.4453 8.04242 33.9331 8.04256C33.6859 8.04256 33.4422 8.05379 33.2003 8.07626C30.7686 4.35613 26.4194 1.92012 21.9336 1.89852H21.8472C18.3561 1.9158 14.9427 3.39694 12.4384 5.84591C11.988 5.7715 11.5322 5.73508 11.0757 5.73703C10.6709 5.73641 10.2665 5.7653 9.8659 5.82344L9.86504 5.82171Z" fill="#FDB713"/>
</svg>
