<svg width="82" height="25" viewBox="0 0 82 25" fill="none" xmlns="http://www.w3.org/2000/svg">
<path d="M4.10272 10.188C4.09985 9.72067 4.13251 9.25376 4.20043 8.79135C4.26911 8.28956 4.45163 7.81013 4.73403 7.3897C5.01644 6.96927 5.39124 6.61899 5.82979 6.36564C6.37698 6.03993 7.04264 5.87708 7.82679 5.87708C8.61093 5.87708 9.2766 6.03993 9.82379 6.36564C10.2623 6.61899 10.6371 6.96927 10.9195 7.3897C11.2019 7.81013 11.3845 8.28956 11.4531 8.79135C11.5211 9.25376 11.5537 9.72067 11.5509 10.188V14.2798C11.5538 14.7471 11.5211 15.214 11.4531 15.6764C11.3841 16.1778 11.2014 16.6567 10.919 17.0767C10.6367 17.4967 10.262 17.8466 9.82379 18.0997C9.2766 18.4254 8.61093 18.5883 7.82679 18.5883C7.04264 18.5883 6.37698 18.4254 5.82979 18.0997C5.39124 17.8464 5.01644 17.4961 4.73403 17.0756C4.45163 16.6552 4.26911 16.1758 4.20043 15.674C4.13248 15.2116 4.09982 14.7447 4.10272 14.2773V10.1856V10.188ZM6.60172 14.6718C6.60172 15.1457 6.71205 15.501 6.93272 15.7375C7.15339 15.974 7.45141 16.0925 7.82679 16.0929C8.20217 16.0929 8.50039 15.9745 8.72147 15.7375C8.94254 15.5005 9.05267 15.1453 9.05186 14.6718V9.79413C9.05186 9.32104 8.94173 8.96581 8.72147 8.72845C8.50121 8.49109 8.20298 8.37262 7.82679 8.37302C7.451 8.37302 7.15298 8.4915 6.93272 8.72845C6.71246 8.9654 6.60212 9.32063 6.60172 9.79413V14.67V14.6718Z" fill="white"/>
<path d="M17.1776 17.318C16.923 17.7046 16.5828 18.0275 16.1834 18.2615C15.7753 18.488 15.3144 18.602 14.8478 18.5919C13.8023 18.5919 13.0753 18.2001 12.667 17.4163C12.507 17.0934 12.4004 16.7467 12.3513 16.3897C12.2857 15.9826 12.2529 15.4352 12.2529 14.7476V10.0164C12.2529 9.1183 12.2776 8.4569 12.3268 8.03226C12.4245 7.21514 12.8083 6.6026 13.478 6.19465C13.7882 5.98213 14.2538 5.87587 14.8747 5.87587C15.1426 5.87068 15.4099 5.90358 15.6686 5.97358C15.8803 6.03514 16.0824 6.12599 16.2689 6.24351C16.4478 6.35757 16.612 6.49337 16.7575 6.6478C16.9049 6.80291 17.0602 6.97025 17.2235 7.14979V6.02305H19.7255V8.71014C18.899 9.70655 18.4467 10.9604 18.4467 12.255C18.4467 13.5495 18.899 14.8034 19.7255 15.7998V19.9642C19.7234 20.4011 19.6532 20.8351 19.5173 21.2503C19.3796 21.6821 19.1505 22.0791 18.8455 22.4143C18.52 22.7849 18.119 23.0815 17.6693 23.284C17.1954 23.5046 16.6319 23.615 15.9788 23.615C15.5799 23.6118 15.1836 23.5501 14.8026 23.4318C14.3871 23.3051 14.0029 23.0922 13.6753 22.807C13.2956 22.5034 12.9835 22.1238 12.7592 21.6925C12.506 21.2267 12.3384 20.6264 12.2566 19.8915H14.7562C14.7773 20.2009 14.9009 20.4944 15.1074 20.7257C15.328 20.9871 15.6507 21.1178 16.0753 21.1178C16.4825 21.1178 16.7764 20.9912 16.9572 20.738C17.1379 20.4847 17.2279 20.1621 17.2271 19.77V17.318H17.1776ZM14.7525 14.623C14.7443 14.9829 14.8331 15.3383 15.0096 15.652C15.1815 15.9456 15.5041 16.0925 15.9776 16.0929C16.1451 16.0972 16.3116 16.0655 16.4659 16C16.6201 15.9345 16.7585 15.8366 16.8717 15.7131C17.1086 15.4603 17.2271 15.1376 17.2271 14.7451V9.91628C17.2271 9.45866 17.1127 9.08695 16.8839 8.80114C16.7773 8.66338 16.6396 8.55283 16.4821 8.47853C16.3246 8.40422 16.1517 8.36828 15.9776 8.37364C15.5526 8.37364 15.2421 8.52897 15.0463 8.83961C14.8505 9.15026 14.7525 9.55861 14.7525 10.0647V14.6218V14.623Z" fill="white"/>
<path d="M28.5234 9.0222V1H31.0237V14.9411C31.0237 15.4151 31.1094 15.7377 31.2808 15.9091C31.4522 16.0805 31.7736 16.1908 32.2451 16.2401V18.5919C31.7273 18.5969 31.2103 18.5519 30.7012 18.4576C30.2722 18.3804 29.8686 18.1995 29.5256 17.9305C29.1999 17.6863 28.9507 17.3392 28.7781 16.8893C28.636 16.5168 28.5528 16.0459 28.5283 15.4767C29.1997 14.5342 29.5599 13.4055 29.5586 12.2483C29.5573 11.0911 29.1945 9.96321 28.521 9.0222H28.5234Z" fill="white"/>
<path d="M1.43694e-06 1H2.499V14.9411C2.499 15.4151 2.58491 15.7377 2.75672 15.9091C2.92853 16.0805 3.25139 16.1908 3.72529 16.2401V18.5919C3.20776 18.5969 2.69095 18.5519 2.18205 18.4576C1.75286 18.3804 1.34906 18.1995 1.00583 17.9305C0.680122 17.6863 0.430955 17.3392 0.25833 16.8893C0.0857042 16.4394 -0.000405699 15.8472 1.43694e-06 15.1128V1Z" fill="white"/>
<path fill-rule="evenodd" clip-rule="evenodd" d="M26.4112 8.13791L26.4259 8.14646C28.1077 9.13946 29.0952 11.2116 28.6965 13.2061C28.3459 14.9613 26.9456 16.463 25.1641 16.9064C23.9673 17.1941 22.7059 17.0174 21.6343 16.4117L22.6938 14.5796C22.8356 14.6625 22.9851 14.7314 23.1403 14.7854C23.7641 15.0013 24.4459 14.9775 25.0532 14.7186C25.6605 14.4598 26.1497 13.9843 26.4259 13.3847C26.702 12.7851 26.7453 12.1042 26.5474 11.4744C26.3494 10.8447 25.9243 10.3111 25.3547 9.97735L26.4143 8.14157L26.4112 8.13791Z" fill="white"/>
<path fill-rule="evenodd" clip-rule="evenodd" d="M26.4111 8.13794L25.3515 9.97372L25.3247 9.95784C24.936 9.7369 24.498 9.61748 24.051 9.61061C23.604 9.60375 23.1625 9.70966 22.7673 9.91856C22.3721 10.1275 22.0359 10.4326 21.7898 10.8058C21.5437 11.179 21.3957 11.6082 21.3594 12.0538C21.2794 13.0492 21.8149 14.0636 22.6938 14.5778L21.6342 16.4099C21.3666 16.2588 21.1146 16.0816 20.8818 15.8811C19.5816 14.7561 18.9575 12.8972 19.355 11.1872C19.7526 9.47721 21.1658 8.03046 22.9124 7.61762C24.0876 7.34609 25.3218 7.52316 26.3732 8.11412L26.4117 8.13611L26.4111 8.13794Z" fill="white"/>
<path fill-rule="evenodd" clip-rule="evenodd" d="M24.9149 10.5587L21.9585 12.8055L23.6764 12.7029L24.4471 14.2419L24.9149 10.5587Z" fill="#FDB713"/>
<path fill-rule="evenodd" clip-rule="evenodd" d="M6.97168 5.11431C7.28954 4.70969 7.63653 4.32882 8.00988 3.97474C10.0221 2.08384 12.6736 1.02155 15.4348 1H15.505C18.8499 1.01588 22.1385 2.65379 24.1624 5.3592C24.4999 5.81028 24.7999 6.28823 25.0595 6.78825C24.7042 6.7187 24.343 6.68373 23.981 6.68382C23.8063 6.68382 23.6341 6.69176 23.4631 6.70764C21.7446 4.07856 18.6709 2.35698 15.5008 2.34172H15.4397C12.9725 2.35393 10.5602 3.40068 8.79036 5.13141C8.47205 5.07882 8.14989 5.05308 7.82728 5.05446C7.54118 5.05403 7.25542 5.07444 6.97229 5.11553L6.97168 5.11431Z" fill="#FDB713"/>
<path d="M38.6732 8.946C39.9932 8.946 40.9652 9.258 41.5892 9.882C42.2252 10.506 42.5432 11.472 42.5432 12.78V18H39.9692V16.686C39.7892 17.142 39.4892 17.502 39.0692 17.766C38.6492 18.018 38.1572 18.144 37.5932 18.144C36.9932 18.144 36.4472 18.024 35.9552 17.784C35.4752 17.544 35.0912 17.208 34.8032 16.776C34.5272 16.344 34.3892 15.864 34.3892 15.336C34.3892 14.688 34.5512 14.178 34.8752 13.806C35.2112 13.434 35.7452 13.164 36.4772 12.996C37.2092 12.828 38.2112 12.744 39.4832 12.744H39.9512V12.42C39.9512 11.892 39.8372 11.52 39.6092 11.304C39.3812 11.088 38.9852 10.98 38.4212 10.98C37.9892 10.98 37.5092 11.058 36.9812 11.214C36.4532 11.37 35.9492 11.586 35.4692 11.862L34.7492 10.044C35.2532 9.732 35.8712 9.474 36.6032 9.27C37.3472 9.054 38.0372 8.946 38.6732 8.946ZM38.1872 16.272C38.7152 16.272 39.1412 16.098 39.4652 15.75C39.7892 15.39 39.9512 14.928 39.9512 14.364V14.058H39.6452C38.6732 14.058 37.9892 14.136 37.5932 14.292C37.2092 14.448 37.0172 14.73 37.0172 15.138C37.0172 15.462 37.1252 15.732 37.3412 15.948C37.5692 16.164 37.8512 16.272 38.1872 16.272Z" fill="#FDB713"/>
<path d="M52.5213 5.31V18H49.8213V16.686C49.5573 17.142 49.1793 17.502 48.6873 17.766C48.2073 18.018 47.6613 18.144 47.0493 18.144C46.2933 18.144 45.6153 17.952 45.0153 17.568C44.4273 17.172 43.9653 16.626 43.6293 15.93C43.3053 15.222 43.1433 14.412 43.1433 13.5C43.1433 12.588 43.3053 11.79 43.6293 11.106C43.9653 10.41 44.4273 9.876 45.0153 9.504C45.6033 9.132 46.2813 8.946 47.0493 8.946C47.6493 8.946 48.1893 9.072 48.6693 9.324C49.1613 9.576 49.5393 9.93 49.8033 10.386V5.31H52.5213ZM47.8413 16.074C48.4773 16.074 48.9633 15.858 49.2993 15.426C49.6473 14.982 49.8213 14.352 49.8213 13.536C49.8213 12.72 49.6473 12.096 49.2993 11.664C48.9633 11.232 48.4773 11.016 47.8413 11.016C47.2053 11.016 46.7133 11.232 46.3653 11.664C46.0173 12.084 45.8433 12.696 45.8433 13.5C45.8433 14.316 46.0173 14.952 46.3653 15.408C46.7133 15.852 47.2053 16.074 47.8413 16.074Z" fill="#FDB713"/>
<path d="M64.5044 8.946C65.5124 8.946 66.2624 9.252 66.7544 9.864C67.2464 10.476 67.4924 11.412 67.4924 12.672V18H64.7744V12.762C64.7744 12.162 64.6784 11.73 64.4864 11.466C64.3064 11.202 63.9944 11.07 63.5504 11.07C63.0344 11.07 62.6324 11.25 62.3444 11.61C62.0564 11.97 61.9124 12.474 61.9124 13.122V18H59.1944V12.762C59.1944 12.162 59.0984 11.73 58.9064 11.466C58.7264 11.202 58.4144 11.07 57.9704 11.07C57.4544 11.07 57.0524 11.25 56.7644 11.61C56.4764 11.97 56.3324 12.474 56.3324 13.122V18H53.6144V9.162H56.2604V10.35C56.5364 9.894 56.9024 9.546 57.3584 9.306C57.8264 9.066 58.3604 8.946 58.9604 8.946C60.2684 8.946 61.1444 9.492 61.5884 10.584C61.8764 10.08 62.2784 9.684 62.7944 9.396C63.3104 9.096 63.8804 8.946 64.5044 8.946Z" fill="#FDB713"/>
<path d="M68.5402 18V9.162H71.2582V18H68.5402ZM68.4502 4.914H71.3662V7.452H68.4502V4.914Z" fill="#FDB713"/>
<path d="M77.883 8.946C78.939 8.946 79.725 9.258 80.241 9.882C80.757 10.494 81.015 11.424 81.015 12.672V18H78.297V12.798C78.297 12.198 78.183 11.76 77.955 11.484C77.739 11.208 77.397 11.07 76.929 11.07C76.365 11.07 75.909 11.25 75.561 11.61C75.225 11.97 75.057 12.45 75.057 13.05V18H72.339V9.162H74.985V10.422C75.297 9.942 75.699 9.576 76.191 9.324C76.695 9.072 77.259 8.946 77.883 8.946Z" fill="#FDB713"/>
<path fill-rule="evenodd" clip-rule="evenodd" d="M42.1054 19.0786C41.7792 19.5945 41.4199 20.0822 41.0305 20.5379C38.9308 22.9726 36.0902 24.4095 33.0761 24.5619L32.9994 24.5651C29.346 24.6977 25.6702 22.8178 23.3204 19.5576C22.9286 19.0141 22.5762 18.4355 22.267 17.8277C22.6585 17.8977 23.0548 17.9246 23.4501 17.908C23.6408 17.9001 23.8285 17.8824 24.0144 17.855C26.0268 21.0345 29.4722 23.0278 32.9348 22.9024L33.0015 22.8996C35.6951 22.7722 38.2752 21.3653 40.1185 19.1402C40.4688 19.1909 40.8219 19.2081 41.1741 19.1917C41.4866 19.1792 41.7976 19.1409 42.1046 19.0771L42.1054 19.0786Z" fill="#FDB713"/>
</svg>
